<svg xmlns="http://www.w3.org/2000/svg" viewBox="0 0 70 63.57"><defs><style>.cls-1{fill:#fff;}</style></defs><title>message</title><g id="Layer_2" data-name="Layer 2"><g id="Layer_12" data-name="Layer 12"><path class="cls-1" d="M67.19,15.77a24.55,24.55,0,0,0-7.77-9.16C53.43,2.29,45,0,35,0S16.57,2.29,10.58,6.61a24.55,24.55,0,0,0-7.77,9.16A30,30,0,0,0,0,29C0,39.69,4.41,47.87,12.8,52.8a29.1,29.1,0,0,1-2.68,6.59l-2.6,4.18h5A21.14,21.14,0,0,0,27,57.43,57.87,57.87,0,0,0,35,58c10,0,18.43-2.29,24.42-6.61a24.63,24.63,0,0,0,7.77-9.16A30,30,0,0,0,70,29a30,30,0,0,0-2.81-13.21Zm-11,31.15c-5,3.65-12.38,5.58-21.21,5.58a51,51,0,0,1-8.6-.69l-1.53-.25-1,1.17a15.46,15.46,0,0,1-6.79,4.57A40.83,40.83,0,0,0,18.64,52l.46-2.1L17.18,49C9.41,45.12,5.47,38.4,5.47,29,5.47,21.07,8.27,15,13.79,11,18.83,7.4,26.17,5.47,35,5.47S51.17,7.4,56.21,11c5.52,4,8.32,10,8.32,17.94s-2.8,14-8.32,17.94Z"/></g></g></svg>