<svg xmlns="http://www.w3.org/2000/svg" viewBox="0 0 200 200"><defs><style>.cls-1{fill:#59abfc;}</style></defs><title>Asset 25</title><g id="Layer_2" data-name="Layer 2"><g id="Layer_12" data-name="Layer 12"><path class="cls-1" d="M56.64,82A7.81,7.81,0,0,1,41,82h0a7.81,7.81,0,0,1,15.62,0Zm68,0h0A7.82,7.82,0,0,0,109,82h0a7.82,7.82,0,0,0,15.63,0Zm34,0h0A7.81,7.81,0,0,0,143,82h0a7.81,7.81,0,0,0,15.62,0ZM56.64,116A7.81,7.81,0,1,0,41,116h0a7.81,7.81,0,0,0,15.62,0Zm-7.81,26.17A7.81,7.81,0,0,0,41,150h0a7.81,7.81,0,0,0,15.62,0h0A7.81,7.81,0,0,0,48.83,142.19ZM90.63,82A7.82,7.82,0,0,0,75,82h0a7.82,7.82,0,0,0,15.63,0Zm0,34A7.82,7.82,0,1,0,75,116h0a7.82,7.82,0,0,0,15.63,0Zm-7.82,26.17A7.81,7.81,0,0,0,75,150h0a7.82,7.82,0,0,0,15.63,0h0A7.82,7.82,0,0,0,82.81,142.19ZM200,152.73a47.27,47.27,0,1,1-47.27-47.26A47.32,47.32,0,0,1,200,152.73Zm-15.62,0a31.65,31.65,0,1,0-31.65,31.65A31.69,31.69,0,0,0,184.38,152.73Zm-20.32-7.81h-3.51v-8.2a7.82,7.82,0,0,0-15.63,0v16a7.82,7.82,0,0,0,7.81,7.82h11.33a7.82,7.82,0,1,0,0-15.63Zm4.69-129.29H158.59V7.81a7.81,7.81,0,0,0-15.62,0v7.82H107.42V7.81a7.81,7.81,0,0,0-15.62,0v7.82H56.64V7.81A7.81,7.81,0,0,0,41,7.81v7.82H31.25A31.28,31.28,0,0,0,0,46.88V168.75A31.29,31.29,0,0,0,31.25,200H91a7.81,7.81,0,0,0,0-15.62H31.25a15.64,15.64,0,0,1-15.62-15.63V46.88A15.64,15.64,0,0,1,31.25,31.25H41v7.81a7.81,7.81,0,1,0,15.62,0V31.25H91.8v7.81a7.81,7.81,0,1,0,15.62,0V31.25H143v7.81a7.81,7.81,0,1,0,15.62,0V31.25h10.16a15.65,15.65,0,0,1,15.63,15.63V91.41a7.81,7.81,0,1,0,15.62,0V46.88A31.28,31.28,0,0,0,168.75,15.63Z"/></g></g></svg>