<svg xmlns="http://www.w3.org/2000/svg" viewBox="0 0 200 199.86"><defs><style>.cls-1{fill:#59abfc;}</style></defs><title>Asset 21</title><g id="Layer_2" data-name="Layer 2"><g id="Layer_12" data-name="Layer 12"><path class="cls-1" d="M163.59,130.71a35.75,35.75,0,0,0,12.73-18.06L200,42.55H47.79L46.11,23.93A26.25,26.25,0,0,0,20,0H0V15.62H20a10.57,10.57,0,0,1,10.58,9.7L42.77,160.8a.2.2,0,0,1,0,.07,26.13,26.13,0,0,0,21.65,23.26,23,23,0,0,0,43.5.51h18.35a23,23,0,1,0,0-15.62H107.93a23,23,0,0,0-43-.88,10.58,10.58,0,0,1-6.62-8.78l-1.94-21.57h86.1a35,35,0,0,0,21.11-7.08Zm-15.65,38.7a7.42,7.42,0,1,1-7.41,7.42,7.43,7.43,0,0,1,7.41-7.42Zm-61.67,0a7.42,7.42,0,1,1-7.42,7.42,7.42,7.42,0,0,1,7.42-7.42ZM55,122.18l-5.77-64h129L161.5,107.75l-.07.2a20.1,20.1,0,0,1-19,14.23Z"/></g></g></svg>