<svg xmlns="http://www.w3.org/2000/svg" viewBox="0 0 74.89 45.11"><defs><style>.cls-1{fill:#fff;}</style></defs><title>sort</title><g id="Layer_2" data-name="Layer 2"><g id="Layer_13" data-name="Layer 13"><path class="cls-1" d="M28.93,6.1h43.5a2.8,2.8,0,0,0,2.46-3,2.8,2.8,0,0,0-2.46-3H28.93a2.8,2.8,0,0,0-2.46,3.05A2.8,2.8,0,0,0,28.93,6.1Z"/><path class="cls-1" d="M47.81,39H28.93a2.8,2.8,0,0,0-2.46,3.05,2.8,2.8,0,0,0,2.46,3H47.81a2.8,2.8,0,0,0,2.46-3A2.8,2.8,0,0,0,47.81,39Z"/><path class="cls-1" d="M56,19.18H28.93a2.8,2.8,0,0,0-2.46,3.05,2.8,2.8,0,0,0,2.46,3.05H56a2.81,2.81,0,0,0,2.47-3.05A2.81,2.81,0,0,0,56,19.18Z"/><path class="cls-1" d="M17,36.18a1.77,1.77,0,0,1,0,2.52L11.9,43.8a4.47,4.47,0,0,1-6.31,0L.52,38.7a1.78,1.78,0,1,1,2.53-2.51L7,40.12V2a1.78,1.78,0,1,1,3.56,0V40.12l3.91-3.93a1.77,1.77,0,0,1,2.52,0Z"/></g></g></svg>