<svg xmlns="http://www.w3.org/2000/svg" viewBox="0 0 50 50"><defs><style>.cls-1{fill:#59abfc;}</style></defs><title>appointments</title><g id="Layer_2" data-name="Layer 2"><g id="Layer_21" data-name="Layer 21"><path class="cls-1" d="M14.16,20.51a2,2,0,0,1-3.91,0h0a2,2,0,1,1,3.91,0Zm17,0h0a2,2,0,1,0-3.9,0h0a1.95,1.95,0,0,0,3.9,0Zm8.5,0h0a2,2,0,1,0-3.91,0h0a2,2,0,0,0,3.91,0ZM14.16,29a2,2,0,0,0-3.91,0h0a2,2,0,1,0,3.91,0Zm-1.95,6.55a2,2,0,0,0-2,2h0a2,2,0,0,0,3.91,0h0A2,2,0,0,0,12.21,35.55Zm10.45-15a2,2,0,1,0-3.91,0h0a2,2,0,0,0,3.91,0Zm0,8.49a2,2,0,0,0-3.91,0h0a2,2,0,1,0,3.91,0Zm-2,6.55a2,2,0,0,0-1.95,2h0a2,2,0,0,0,3.91,0h0A2,2,0,0,0,20.7,35.55ZM50,38.18A11.82,11.82,0,1,1,38.18,26.37,11.83,11.83,0,0,1,50,38.18Zm-3.91,0a7.91,7.91,0,1,0-7.91,7.91A7.91,7.91,0,0,0,46.09,38.18Zm-5.07-2h-.88v-2a2,2,0,0,0-3.91,0v4a2,2,0,0,0,2,2H41a2,2,0,0,0,0-3.91ZM42.19,3.91H39.65V2a2,2,0,0,0-3.91,0v2H26.86V2A2,2,0,0,0,23,2v2H14.16V2a2,2,0,0,0-3.91,0v2H7.81A7.81,7.81,0,0,0,0,11.72V42.19A7.81,7.81,0,0,0,7.81,50H22.75a2,2,0,1,0,0-3.91H7.81a3.91,3.91,0,0,1-3.9-3.9V11.72a3.91,3.91,0,0,1,3.9-3.91h2.44v2a2,2,0,0,0,3.91,0v-2H23v2a2,2,0,0,0,3.91,0v-2h8.88v2a2,2,0,0,0,3.91,0v-2h2.54a3.91,3.91,0,0,1,3.9,3.91V22.85a2,2,0,0,0,3.91,0V11.72A7.81,7.81,0,0,0,42.19,3.91Z"/></g></g></svg>