<svg xmlns="http://www.w3.org/2000/svg" xmlns:xlink="http://www.w3.org/1999/xlink" viewBox="0 0 31.9 50.58"><defs><style>.cls-1{fill:none;}.cls-2{clip-path:url(#clip-path);}.cls-3{fill:#fff;}</style><clipPath id="clip-path"><rect class="cls-1" width="31.91" height="50.58"/></clipPath></defs><title>arrow</title><g id="Layer_2" data-name="Layer 2"><g id="Layer_21" data-name="Layer 21"><g class="cls-2"><path class="cls-3" d="M6.83,50.58a5.88,5.88,0,0,1-4.19-1.73l-.9-.91a5.93,5.93,0,0,1,0-8.43L16.33,25.33,1.87,11.08A5.94,5.94,0,0,1,1.81,2.7l.92-.93a5.93,5.93,0,0,1,8.47,0l19,19.39a5.92,5.92,0,0,1,0,8.29l-5.81,5.9a2,2,0,0,1-2.82-2.77l5.81-5.9a2,2,0,0,0,0-2.76L8.37,4.55a2,2,0,0,0-2.82,0l-.92.93a2,2,0,0,0-.57,1.41,1.94,1.94,0,0,0,.59,1.39L20.54,23.93a2,2,0,0,1,0,2.82l-16,15.59A2,2,0,0,0,4,43.74a2,2,0,0,0,.58,1.41l.91.9a2,2,0,0,0,2.8,0h0l6.36-6.39a2,2,0,1,1,2.8,2.79l-6.35,6.38a5.85,5.85,0,0,1-4.2,1.77Z"/></g></g></g></svg>