<svg xmlns="http://www.w3.org/2000/svg" viewBox="0 0 30 30"><defs><style>.cls-1{fill:#a5a5a5;}</style></defs><title>call</title><g id="Layer_2" data-name="Layer 2"><g id="Layer_21" data-name="Layer 21"><path class="cls-1" d="M21.89,30h-.07a17.38,17.38,0,0,1-6.7-1.56,1.17,1.17,0,1,1,.93-2.15,15.39,15.39,0,0,0,5.78,1.37h.06a7.24,7.24,0,0,0,5.22-1.9h0A2.12,2.12,0,0,0,27,22.81c-3.15-3-4.63-2.81-6-1.47l-2.19,2.17a1.18,1.18,0,0,1-1.3.24A23.89,23.89,0,0,1,11.12,19L11,18.88a23.89,23.89,0,0,1-4.71-6.39,1.16,1.16,0,0,1,.24-1.3L8.66,9C10,7.62,10.22,6.14,7.19,3a2.12,2.12,0,0,0-2.94-.11h0a7.27,7.27,0,0,0-1.9,5.28c0,4.21,2.42,9.11,6.4,13.09a26.44,26.44,0,0,0,2.58,2.24,1.17,1.17,0,1,1-1.43,1.86,28.63,28.63,0,0,1-2.81-2.44C2.67,18.51,0,13,0,8.18a9.53,9.53,0,0,1,2.61-7s0,0,0,0l0,0a4.46,4.46,0,0,1,6.19.22,10.89,10.89,0,0,1,2.86,4.32,4.84,4.84,0,0,1-1.4,5h0L8.76,12.23a23.66,23.66,0,0,0,3.86,5l.15.15a23.75,23.75,0,0,0,5,3.86l1.58-1.57h0a4.84,4.84,0,0,1,5-1.4,10.89,10.89,0,0,1,4.32,2.86,4.46,4.46,0,0,1,.22,6.19l0,0s0,0,0,0A9.5,9.5,0,0,1,21.89,30Z"/></g></g></svg>