<svg xmlns="http://www.w3.org/2000/svg" viewBox="0 0 50.68 50.58"><defs><style>.cls-1{fill:#59abfc;}</style></defs><title>date</title><g id="Layer_2" data-name="Layer 2"><g id="Layer_21" data-name="Layer 21"><path class="cls-1" d="M48.13,13.46a10.61,10.61,0,0,0-4.87-3.2,10,10,0,0,0-15.68-6.1A12.76,12.76,0,0,0,24.5,1.67,12.6,12.6,0,0,0,5.64,12.28,9.78,9.78,0,0,0,7.19,30.57l2.47,18.3a2,2,0,0,0,2,1.71H39.07a2,2,0,0,0,2-1.72l2.42-18.48A10.1,10.1,0,0,0,45,29.71a2,2,0,0,0-1.85-3.5,6.44,6.44,0,0,1-3.08.76H9.78A5.83,5.83,0,0,1,8.19,15.53a2,2,0,0,0,1.43-2.09c0-.28,0-.57,0-.84A8.65,8.65,0,0,1,25.11,7.36h0A10.18,10.18,0,0,0,24,13.52,2,2,0,0,0,27.94,13a6.12,6.12,0,0,1,3.42-6.36A6.07,6.07,0,0,1,39.51,12a2,2,0,0,0,1.66,1.85,6.58,6.58,0,0,1,5.56,6.53,2,2,0,1,0,4,0,10.56,10.56,0,0,0-2.55-6.89ZM11.22,30.92h4.25l1.17,15.71H13.35ZM27.37,46.63V30.92h4.17L30.37,46.63Zm-4,0h-2.8L19.44,30.92h4Zm13.93,0h-3l1.17-15.71h3.88ZM16.84,10.42a2,2,0,1,1-2,2,2,2,0,0,1,2-2Zm-4.69,8.35a2,2,0,1,1-2,2,2,2,0,0,1,2-2Zm21.44-8.69a2,2,0,1,1-2,2,2,2,0,0,1,2-2ZM40,18.48a2,2,0,1,1-2,2,2,2,0,0,1,2-2ZM21.93,19.66a2,2,0,1,1-2,2,2,2,0,0,1,2-2Z"/></g></g></svg>