<svg xmlns="http://www.w3.org/2000/svg" xmlns:xlink="http://www.w3.org/1999/xlink" viewBox="0 0 56.86 56.86"><defs><style>.cls-1{fill:none;}.cls-2{clip-path:url(#clip-path);}.cls-3{fill:#fff;}</style><clipPath id="clip-path" transform="translate(0)"><rect class="cls-1" width="56.86" height="56.86"/></clipPath></defs><title>edit</title><g id="Layer_2" data-name="Layer 2"><g id="Layer_21" data-name="Layer 21"><g class="cls-2"><path class="cls-3" d="M54.91,8.61,48.24,2a6.66,6.66,0,0,0-9.41,0L5.68,35.1a2.12,2.12,0,0,0-.38.47h0l0,.05h0a2,2,0,0,0-.19.5l-5,17.91a2.26,2.26,0,0,0,.57,2.17,2.23,2.23,0,0,0,1.57.64,2.13,2.13,0,0,0,.61-.08l17.94-5.1a2.2,2.2,0,0,0,1.54-1.56l0-.13s0,0,0-.05a8.09,8.09,0,0,0-1.52-6.85,7.35,7.35,0,0,0-1.92-1.74L38.54,21.67a2.22,2.22,0,0,0-3.14-3.14L15.85,38.14a8,8,0,0,0-1.92-2.06A8.54,8.54,0,0,0,12.06,35L37.25,9.8l9.8,9.8L26.41,40.2a2.22,2.22,0,0,0,3.14,3.14L54.89,18.05a6.66,6.66,0,0,0,0-9.44ZM12.65,42.42a2.22,2.22,0,0,0,2.22,2.23,3.05,3.05,0,0,1,2.48,1.18,3.74,3.74,0,0,1,.77,2l-12.7,3.6L9,38.74a4.42,4.42,0,0,1,2.29.87,3.44,3.44,0,0,1,1.41,2.81ZM51.76,14.9l-1.57,1.56-9.8-9.8L42,5.09a2.22,2.22,0,0,1,3.14,0l6.66,6.66a2.22,2.22,0,0,1,.66,1.57,2.27,2.27,0,0,1-.66,1.58Z" transform="translate(0)"/></g></g></g></svg>