<svg xmlns="http://www.w3.org/2000/svg" viewBox="0 0 56.86 56.86"><defs><style>.cls-1{fill:#fff;}</style></defs><title>i</title><g id="Layer_2" data-name="Layer 2"><g id="Layer_21" data-name="Layer 21"><path class="cls-1" d="M30.54,42.2A2.22,2.22,0,1,1,28.32,40a2.21,2.21,0,0,1,2.22,2.22Zm0-26.76a2.22,2.22,0,1,0-4.44,0v19a2.22,2.22,0,0,0,4.44,0Zm18-7.11A28.43,28.43,0,1,0,8.33,48.54a28.46,28.46,0,0,0,34.81,4.23,2.22,2.22,0,1,0-2.3-3.8,24.21,24.21,0,1,1,7.51-7.22,2.22,2.22,0,0,0,3.7,2.47A28.39,28.39,0,0,0,48.54,8.33Z"/></g></g></svg>