<svg xmlns="http://www.w3.org/2000/svg" viewBox="0 0 52.27 50.63"><defs><style>.cls-1{fill:#59abfc;}</style></defs><title>membership</title><g id="Layer_2" data-name="Layer 2"><g id="Layer_21" data-name="Layer 21"><path class="cls-1" d="M39.87,50.63a4.16,4.16,0,0,1-2.39-.76L26.53,42.24a.68.68,0,0,0-.79,0l-11,7.63a4.2,4.2,0,0,1-6.41-4.66L12.24,32.4a.66.66,0,0,0-.24-.74l-10.36-8a4.2,4.2,0,0,1,2.55-7.53h13a.68.68,0,0,0,.65-.44L22.16,2.84a4.19,4.19,0,0,1,7.94,0l4.37,12.85a.68.68,0,0,0,.66.44H48.07a4.2,4.2,0,0,1,2.56,7.52l-10.37,8a.68.68,0,0,0-.24.74l.34,1.13a2,2,0,0,1-3.91,1.18l-.34-1.12a4.83,4.83,0,0,1,1.65-5.17l10.38-8a.07.07,0,0,0,0-.08.17.17,0,0,0,0-.12h-13A4.76,4.76,0,0,1,30.61,17L26.24,4.16c0-.06,0-.08-.11-.08s-.09,0-.1.08L21.66,17a4.77,4.77,0,0,1-4.52,3.21h-13a.17.17,0,0,0,0,.12s0,.05,0,.08l10.37,8a4.81,4.81,0,0,1,1.65,5.17l-3.87,12.8s0,.08,0,.12.09,0,.13,0l11-7.63a4.79,4.79,0,0,1,5.46,0l11,7.63s.06,0,.13,0,.06-.07,0-.12l-.57-1.88a2,2,0,1,1,3.91-1.18l.57,1.88a4.17,4.17,0,0,1-1.55,4.61,4.22,4.22,0,0,1-2.47.81Z"/></g></g></svg>