<svg xmlns="http://www.w3.org/2000/svg" viewBox="0 0 54.03 50.58"><defs><style>.cls-1{fill:#59abfc;}</style></defs><title>my_orders</title><g id="Layer_2" data-name="Layer 2"><g id="Layer_21" data-name="Layer 21"><path class="cls-1" d="M50.65,13.44H40a13,13,0,0,0,1.88-1.51,7.06,7.06,0,0,0,0-9.93A7.13,7.13,0,0,0,32,2c-1.47,1.47-5.35,7.45-4.82,11.44h-.24c.54-4-3.35-10-4.81-11.44a7.13,7.13,0,0,0-9.9,0,7.05,7.05,0,0,0,0,9.93,13.1,13.1,0,0,0,1.89,1.51H3.38A3.39,3.39,0,0,0,0,16.82v8.44A1.69,1.69,0,0,0,1.69,27H3.38V47.21a3.37,3.37,0,0,0,3.37,3.37H47.27a3.38,3.38,0,0,0,3.38-3.37V27h1.69A1.69,1.69,0,0,0,54,25.26V16.82A3.39,3.39,0,0,0,50.65,13.44Zm-20.06-.11c-.79-.81,1.47-6.66,3.75-8.95a3.69,3.69,0,0,1,5.12,0,3.69,3.69,0,0,1,0,5.17C38,11,33.55,13.44,31.21,13.44A1.11,1.11,0,0,1,30.59,13.33Zm-16-3.78a3.69,3.69,0,0,1,0-5.17,3.6,3.6,0,0,1,5.12,0c2.27,2.29,4.53,8.14,3.75,9a1.13,1.13,0,0,1-.63.11C20.48,13.44,16,11,14.57,9.55ZM3.38,16.82H25.32v6.75H3.38ZM6.75,27H25.32V47.21H6.75ZM47.27,47.21H28.7V27H47.27Zm3.38-23.64H28.7V16.82h22Z"/></g></g></svg>