<svg xmlns="http://www.w3.org/2000/svg" viewBox="0 0 50.54 50.55"><defs><style>.cls-1{fill:#59abfc;}</style></defs><title>nutrition</title><g id="Layer_2" data-name="Layer 2"><g id="Layer_21" data-name="Layer 21"><path class="cls-1" d="M40.18,32.77a2,2,0,1,1,2-2,2,2,0,0,1-2,2Zm-4,5.34a2,2,0,1,0,2-2,2,2,0,0,0-2,2ZM33.56,27.84A10.86,10.86,0,1,1,22.71,17,10.87,10.87,0,0,1,33.56,27.84Zm-3.94,0a6.92,6.92,0,1,0-6.91,6.91,6.92,6.92,0,0,0,6.91-6.91Zm-6.91-4.05a2,2,0,0,0,0,3.95,2,2,0,0,0,3.95,0,3.94,3.94,0,0,0-3.93-3.93Zm23.87-4.07-.34-.5A6.21,6.21,0,0,1,45,16.75a6.37,6.37,0,0,1,.33-2.09c.13-.49.26-1,.35-1.54a11.22,11.22,0,0,0,.2-2.18c0-4.17-2.42-7.64-6.52-9.53A16.51,16.51,0,0,0,30.76.11,15.68,15.68,0,0,0,22.33,3.6c-.58.48-1.1,1-1.6,1.48-.34.32-.66.63-1,.92C18,7.62,15.4,8.72,11.69,9.47l-.6.12a14.39,14.39,0,0,0-5.54,1.94,10.21,10.21,0,0,0-4.07,8.39,14,14,0,0,0,.43,3.18v0c.13.57.28,1.13.42,1.66a12.48,12.48,0,0,1,.58,3.13,12.28,12.28,0,0,1-1.29,4.51,20.48,20.48,0,0,0-1.46,4.4A11.79,11.79,0,0,0,4.11,47.67a12.36,12.36,0,0,0,8,2.88,12.05,12.05,0,0,0,3.21-.43,22.4,22.4,0,0,0,4-1.62,25.4,25.4,0,0,1,2.86-1.23,12.74,12.74,0,0,1,3.9-.67,21.68,21.68,0,0,1,4.93.78,27.32,27.32,0,0,0,6.65,1c2.35,0,5.36-.23,7.8-2a2,2,0,1,0-2.35-3.17c-1.18.87-2.86,1.26-5.45,1.26a23.63,23.63,0,0,1-5.74-.88,24.69,24.69,0,0,0-5.84-.89,16.58,16.58,0,0,0-5.12.87A26.77,26.77,0,0,0,17.59,45a19.38,19.38,0,0,1-3.32,1.36,8.54,8.54,0,0,1-7.6-1.65,7.85,7.85,0,0,1-2.62-7.12A17.9,17.9,0,0,1,5.27,34a15.39,15.39,0,0,0,1.6-6,15.42,15.42,0,0,0-.72-4.17c-.13-.51-.26-1-.37-1.47v-.06A10.41,10.41,0,0,1,5.43,20a6.26,6.26,0,0,1,2.36-5.18,10.85,10.85,0,0,1,4.06-1.32l.62-.13c2.79-.56,6.85-1.63,9.93-4.41l1.08-1c.47-.46.92-.89,1.38-1.28A12.68,12.68,0,0,1,37.73,5,6.67,6.67,0,0,1,42,11a9.1,9.1,0,0,1-.15,1.47c-.06.38-.17.78-.28,1.21a9.72,9.72,0,0,0-.45,3.46A9.24,9.24,0,0,0,43,21.43c.11.15.21.31.31.47a20.51,20.51,0,0,1,3,14.5,2,2,0,1,0,3.89.65,24.54,24.54,0,0,0-3.64-17.33Z"/></g></g></svg>