<svg xmlns="http://www.w3.org/2000/svg" viewBox="0 0 50 50"><defs><style>.cls-1{fill:#59abfc;}</style></defs><title>progress</title><g id="Layer_2" data-name="Layer 2"><g id="Layer_21" data-name="Layer 21"><path class="cls-1" d="M42.77,50a7.23,7.23,0,0,1-7.22-7.23V19.15a7.23,7.23,0,0,1,14.45,0V32.92a2,2,0,1,1-3.91,0V19.15a3.32,3.32,0,0,0-6.64,0V42.77a3.32,3.32,0,0,0,6.64,0,2,2,0,0,1,3.91,0A7.23,7.23,0,0,1,42.77,50Z"/><path class="cls-1" d="M7.23,50A7.23,7.23,0,0,1,0,42.77V25.11a7.23,7.23,0,1,1,14.45,0V42.77A7.23,7.23,0,0,1,7.23,50Zm0-28.21a3.32,3.32,0,0,0-3.32,3.32V42.77a3.32,3.32,0,1,0,6.64,0V25.11A3.32,3.32,0,0,0,7.23,21.79Z"/><path class="cls-1" d="M25,50a7.24,7.24,0,0,1-7.23-7.23V7.23a7.23,7.23,0,1,1,14.46,0V42.77A7.24,7.24,0,0,1,25,50ZM25,3.91a3.32,3.32,0,0,0-3.32,3.32V42.77a3.32,3.32,0,1,0,6.64,0V7.23A3.32,3.32,0,0,0,25,3.91Z"/></g></g></svg>