<svg xmlns="http://www.w3.org/2000/svg" viewBox="0 0 42.86 50.55"><defs><style>.cls-1{fill:#59abfc;}</style></defs><title>sport</title><g id="Layer_2" data-name="Layer 2"><g id="Layer_21" data-name="Layer 21"><path class="cls-1" d="M23.24,4a1.49,1.49,0,0,0,1.48-1.48V1.48a1.49,1.49,0,0,0-3,0V2.55A1.49,1.49,0,0,0,23.24,4Z"/><path class="cls-1" d="M9.61,8a1.48,1.48,0,1,0,2.1-2.09l-1-.94A1.48,1.48,0,1,0,8.67,7Z"/><path class="cls-1" d="M36,8.42A1.49,1.49,0,0,0,37,8L38,7A1.48,1.48,0,1,0,35.87,5l-.94.94a1.48,1.48,0,0,0,0,2.1A1.51,1.51,0,0,0,36,8.42Z"/><path class="cls-1" d="M5.11,18H6.24a1.48,1.48,0,0,0,0-3H5.11a1.48,1.48,0,1,0,0,3Z"/><path class="cls-1" d="M41.38,15H40.23a1.48,1.48,0,0,0,0,3h1.15a1.48,1.48,0,0,0,0-3Z"/><path class="cls-1" d="M40.83,21H35.36a1.44,1.44,0,0,0-1.16.56l0,0a1.47,1.47,0,0,0,1.15,2.37h3.89a0,0,0,0,1,0,0,19.38,19.38,0,0,1-1.6,6.44,11.81,11.81,0,0,1-4.88,5.4,1.57,1.57,0,0,0-.8,1.34V47.55s0,0,0,0H16.73a0,0,0,0,1,0,0V47a1.56,1.56,0,0,0-1.49-1.6,1.48,1.48,0,0,0-1.47,1.49V49a1.52,1.52,0,0,0,1.52,1.51H33.42A1.52,1.52,0,0,0,34.94,49V38l0,0c4.63-3,7.1-8.21,7.35-15.44a1.45,1.45,0,0,0-.41-1.08A1.47,1.47,0,0,0,40.83,21Z"/><path class="cls-1" d="M19.47,42.72a6.43,6.43,0,0,0,4.24-3.35c.91-1.8,2.07-4.15,2.08-4.18a1.51,1.51,0,0,0,.15-.65,1.48,1.48,0,0,0-2.81-.65S22,36.26,21.06,38a3.41,3.41,0,0,1-2.27,1.79l-3.87.93-4.8.62h-.06a.73.73,0,0,1-.63-.17.79.79,0,0,1-.27-.62v-.12l-.47-8.27a1.45,1.45,0,0,0,.09-.55A1.55,1.55,0,0,0,7.19,30.2H3.06l3.6-6.28h9.45a38.92,38.92,0,0,0,6.27,5,1.49,1.49,0,0,0,1.56,0,39.54,39.54,0,0,0,6.23-5h.07a20,20,0,0,0,2.52-3h0c.29-.4.55-.82.8-1.23.06-.11.12-.2.17-.3.19-.34.37-.69.53-1,0-.12.11-.24.15-.35A9.31,9.31,0,0,0,35,16a9.27,9.27,0,0,0-.25-3.88,7.82,7.82,0,0,0-1.92-3.27,6.44,6.44,0,0,0-4.57-2,6.53,6.53,0,0,0-5.08,2.56,6.56,6.56,0,0,0-5.08-2.56,6.44,6.44,0,0,0-4.94,2.38,8.45,8.45,0,0,0-1.94,5.44A8.66,8.66,0,0,0,12,18.21,14.35,14.35,0,0,0,13.54,21H5.8a1.49,1.49,0,0,0-1.29.74L.42,28.84a3,3,0,0,0-.16,2.71,2.76,2.76,0,0,0,2.53,1.61h3l.42,7.43a3.74,3.74,0,0,0,4.33,3.73l3.15-.41,3.07-.54ZM18.08,9.87a4.08,4.08,0,0,1,3.66,3.18,1.48,1.48,0,0,0,2.83,0,4.09,4.09,0,0,1,3.67-3.18A3.48,3.48,0,0,1,30.7,11a5.31,5.31,0,0,1,1.45,3.77A6,6,0,0,1,31.61,17a15.32,15.32,0,0,1-3.08,4.33l-.08.08a36.08,36.08,0,0,1-5.3,4.42c-.72-.5-1.86-1.32-3.1-2.37a19.08,19.08,0,0,1-5.37-6.45,5.89,5.89,0,0,1-.52-2.31C14.18,12.06,15.93,9.87,18.08,9.87Z"/></g></g></svg>