<svg xmlns="http://www.w3.org/2000/svg" viewBox="0 0 675.91 415.49"><defs><style>.cls-1{opacity:0.7;}.cls-2{fill:#2b2c2d;}.cls-3{fill:#59abfc;}.cls-4{fill:#a6c73f;}</style></defs><title>password</title><g id="Layer_2" data-name="Layer 2"><g id="Layer_32" data-name="Layer 32"><g class="cls-1"><path class="cls-2" d="M607.82,415.48H61.47a59.32,59.32,0,0,1-57.56-44.8q-.72-2.83-1.26-5.66A155,155,0,0,1,0,338.7c-.69-41.83,11.79-54.45,19.16-80.24,7.1-24.78-.81-30.61-3-71.88-1.69-32,3.65-62.76,26.89-84.62C76.69,70.4,133,69,178.15,65.56c16.63-1.28,45.33-.33,146.38-47.66a190.22,190.22,0,0,1,141.15-8c60.71,20.51,77.9,50.63,102.28,93.13,13.88,24.22,19.86,35.4,37.41,57.31,23.76,30.08,54.17,56.66,66.12,106,10.51,43.31,1.2,82.36-16.52,119.39A52.31,52.31,0,0,1,607.82,415.48Z"/></g><path class="cls-3" d="M477.79,268.35H214.51a8.19,8.19,0,0,0-8.19,8.2v65.54a8.19,8.19,0,0,0,8.19,8.2H477.79a8.2,8.2,0,0,0,8.19-8.2V276.55A8.2,8.2,0,0,0,477.79,268.35Zm-219,51.89a10.93,10.93,0,1,1,10.93-10.92A10.92,10.92,0,0,1,258.75,320.24Zm43.7,0a10.93,10.93,0,1,1,10.93-10.92A10.92,10.92,0,0,1,302.45,320.24Zm43.7,0a10.93,10.93,0,1,1,10.92-10.92A10.93,10.93,0,0,1,346.15,320.24Zm43.7,0a10.93,10.93,0,1,1,10.92-10.92A10.92,10.92,0,0,1,389.85,320.24Zm43.69,0a10.93,10.93,0,1,1,10.93-10.92A10.92,10.92,0,0,1,433.54,320.24Z"/><path class="cls-4" d="M302.45,257.43h87.4a8.2,8.2,0,0,0,8.19-8.2V183.69a8.2,8.2,0,0,0-8.19-8.2h-2.73V150.91a41,41,0,0,0-81.94,0v24.58h-2.73a8.2,8.2,0,0,0-8.19,8.2v65.54A8.2,8.2,0,0,0,302.45,257.43Zm51.89-32.78a8.19,8.19,0,1,1-16.38,0V208.27a8.19,8.19,0,1,1,16.38,0Zm-32.77-73.74a24.58,24.58,0,0,1,49.16,0v24.58H321.57Z"/></g></g></svg>