<svg xmlns="http://www.w3.org/2000/svg" viewBox="0 0 24.26 30"><defs><style>.cls-1{fill:#a5a5a5;}</style></defs><title>location</title><g id="Layer_2" data-name="Layer 2"><g id="Layer_23" data-name="Layer 23"><path class="cls-1" d="M12.13,18A5.86,5.86,0,1,1,18,12.13,5.87,5.87,0,0,1,12.13,18Zm0-9.38a3.52,3.52,0,1,0,3.51,3.52,3.53,3.53,0,0,0-3.51-3.52ZM2,29.66l6.09-6.09a11.94,11.94,0,0,0,4,.69h0A12.05,12.05,0,0,0,17.64,23a1.17,1.17,0,0,0-1.06-2.09,9.75,9.75,0,0,1-4.45,1h0a9.58,9.58,0,0,1-3.85-.79,1.18,1.18,0,0,0-1.3.25L2.34,26V12.22a9.86,9.86,0,0,1,2.94-7,9.67,9.67,0,0,1,6.85-2.86h0a9.83,9.83,0,0,1,8.37,14.82,1.17,1.17,0,0,0,2,1.19,12.31,12.31,0,0,0,1.69-6.11A12.14,12.14,0,0,0,12.19,0h-.06a12,12,0,0,0-8.5,3.54A12.16,12.16,0,0,0,0,12.22V28.83a1.18,1.18,0,0,0,.72,1.08,1.2,1.2,0,0,0,.45.09A1.17,1.17,0,0,0,2,29.66Z"/></g></g></svg>