<svg xmlns="http://www.w3.org/2000/svg" viewBox="0 0 50.4 48.67"><defs><style>.cls-1{fill:#fff;}</style></defs><title>Asset 41</title><g id="Layer_2" data-name="Layer 2"><g id="Layer_14" data-name="Layer 14"><path class="cls-1" d="M16.59.07a2,2,0,0,0-1.93,2.09v9.77h0v2.63H11.86l0,0H2.14A2.06,2.06,0,0,0,0,16.52a2,2,0,0,0,2.14,1.92H16.38a2.06,2.06,0,0,0,2.13-1.84,1.34,1.34,0,0,1,0-.21,1.77,1.77,0,0,1,0-.24v-14A2,2,0,0,0,16.59.07Z"/><path class="cls-1" d="M50.4,16.59a2,2,0,0,0-2.08-1.93H35.91V11.86l0,0V2.14a1.94,1.94,0,1,0-3.86,0V16.38a2.06,2.06,0,0,0,1.84,2.13H48.32A2,2,0,0,0,50.4,16.59Z"/><path class="cls-1" d="M33.81,48.6a2,2,0,0,0,1.93-2.09V36.74h0V34.11h2.79l0,0h9.74a2.06,2.06,0,0,0,2.14-1.94,2,2,0,0,0-2.14-1.92H34a2.06,2.06,0,0,0-2.14,1.84,1.27,1.27,0,0,1,0,.22,1.64,1.64,0,0,1,0,.23v14A2,2,0,0,0,33.81,48.6Z"/><path class="cls-1" d="M0,32.08A2,2,0,0,0,2.09,34h12.4v2.79l0,0v9.74a2.06,2.06,0,0,0,1.94,2.14,2,2,0,0,0,1.92-2.14V32.3a2.06,2.06,0,0,0-1.84-2.14l-.22,0-.23,0h-14A2,2,0,0,0,0,32.08Z"/></g></g></svg>