<svg xmlns="http://www.w3.org/2000/svg" viewBox="0 0 70 70"><defs><style>.cls-1{fill:#fff;}</style></defs><title>appointment</title><g id="Layer_2" data-name="Layer 2"><g id="Layer_12" data-name="Layer 12"><path class="cls-1" d="M61.8,5.47H58.51V0H53.05V5.47H17V0H11.48V5.47H8.2A8.21,8.21,0,0,0,0,13.67V61.8A8.21,8.21,0,0,0,8.2,70H61.8A8.21,8.21,0,0,0,70,61.8V13.67a8.21,8.21,0,0,0-8.2-8.2ZM64.53,61.8a2.74,2.74,0,0,1-2.73,2.73H8.2A2.74,2.74,0,0,1,5.47,61.8V25.7H64.53Zm0-41.57H5.47V13.67A2.73,2.73,0,0,1,8.2,10.94h3.28v5.47H17V10.94h36.1v5.47h5.46V10.94H61.8a2.73,2.73,0,0,1,2.73,2.73Z"/><rect class="cls-1" x="10.39" y="31.45" width="5.47" height="5.47"/><rect class="cls-1" x="21.33" y="31.45" width="5.47" height="5.47"/><rect class="cls-1" x="32.27" y="31.45" width="5.47" height="5.47"/><rect class="cls-1" x="32.27" y="42.38" width="5.47" height="5.47"/><rect class="cls-1" x="32.27" y="53.32" width="5.47" height="5.47"/><rect class="cls-1" x="43.2" y="31.45" width="5.47" height="5.47"/><rect class="cls-1" x="54.14" y="31.45" width="5.47" height="5.47"/><rect class="cls-1" x="10.39" y="42.38" width="5.47" height="5.47"/><rect class="cls-1" x="21.33" y="42.38" width="5.47" height="5.47"/><rect class="cls-1" x="10.39" y="53.32" width="5.47" height="5.47"/><rect class="cls-1" x="21.33" y="53.32" width="5.47" height="5.47"/><circle class="cls-1" cx="51.14" cy="50.59" r="8.2"/></g></g></svg>