<svg xmlns="http://www.w3.org/2000/svg" viewBox="0 0 183.98 200"><defs><style>.cls-1{fill:#59abfc;}</style></defs><title>Asset 27</title><g id="Layer_2" data-name="Layer 2"><g id="Layer_12" data-name="Layer 12"><path class="cls-1" d="M168.36,129.69V15.62H39.06a7.83,7.83,0,0,0-7.81,7.82V33.59h7.81a7.82,7.82,0,0,1,0,15.63H23.44a7.81,7.81,0,1,0,0,15.62,7.82,7.82,0,0,1,7.81,7.82v7.81h7.81a7.81,7.81,0,0,1,0,15.62H23.44a7.82,7.82,0,1,0,0,15.63,7.81,7.81,0,0,1,7.81,7.81v7.81h7.81a7.82,7.82,0,0,1,0,15.63H23.44a7.81,7.81,0,1,0,0,15.62,7.82,7.82,0,0,1,7.81,7.82v10.15a7.83,7.83,0,0,0,7.81,7.82h129.3V168.75a7.81,7.81,0,1,1,15.62,0v23.44a7.81,7.81,0,0,1-7.81,7.81H39.06a23.47,23.47,0,0,1-23.44-23.44v-3.68a23.44,23.44,0,0,1,0-44.19V126a23.44,23.44,0,0,1,0-44.2V79.13a23.44,23.44,0,0,1,0-44.19V23.44A23.47,23.47,0,0,1,39.06,0H176.17A7.81,7.81,0,0,1,184,7.81V129.69a7.81,7.81,0,0,1-15.62,0Zm-86-35.52a23.44,23.44,0,1,1,39.08,0,40.61,40.61,0,0,1,19.89,26.6c.05.18.1.36.14.54a13.5,13.5,0,0,1-2.76,11.28,13.26,13.26,0,0,1-10.3,4.91h-53a13.37,13.37,0,0,1-13.06-16.12,40.66,40.66,0,0,1,20-27.21ZM102,89.06a7.81,7.81,0,1,0-7.81-7.81A7.82,7.82,0,0,0,102,89.06ZM78.4,121.87h47.11a24.74,24.74,0,0,0-47.11,0Z"/></g></g></svg>