<svg xmlns="http://www.w3.org/2000/svg" viewBox="0 0 136.72 200"><defs><style>.cls-1{fill:#59abfc;}</style></defs><title>Asset 24</title><g id="Layer_2" data-name="Layer 2"><g id="Layer_12" data-name="Layer 12"><path class="cls-1" d="M17.52,11.72h119.2V0H17.52A17.57,17.57,0,0,0,0,17.58V182.42A17.6,17.6,0,0,0,17.58,200H136.72V23.44H17.52a5.86,5.86,0,0,1,0-11.72Zm0,23.44H125V188.28H17.58a5.87,5.87,0,0,1-5.86-5.86V34.17A17.44,17.44,0,0,0,17.52,35.16Z"/><path class="cls-1" d="M43.36,71.24v75.09l64.36-37.54ZM55.08,91.65l29.38,17.14L55.08,125.93Z"/></g></g></svg>