<svg xmlns="http://www.w3.org/2000/svg" viewBox="0 0 200 200"><defs><style>.cls-1{fill:#59abfc;}</style></defs><title>Asset 26</title><g id="Layer_2" data-name="Layer 2"><g id="Layer_12" data-name="Layer 12"><path class="cls-1" d="M114.06,31.25H39.45a7.81,7.81,0,0,0-7.81,7.81V69.92a7.81,7.81,0,0,0,7.81,7.81h74.61a7.81,7.81,0,0,0,7.82-7.81V39.06A7.82,7.82,0,0,0,114.06,31.25Zm-7.81,30.86h-59V46.87h59ZM71.09,160.94a7.81,7.81,0,0,1-7.81,7.81H39.45a7.82,7.82,0,0,1,0-15.63H63.28A7.81,7.81,0,0,1,71.09,160.94Zm0-60.55a7.81,7.81,0,0,1-7.81,7.81H39.45a7.81,7.81,0,0,1,0-15.62H63.28A7.81,7.81,0,0,1,71.09,100.39Zm50.79,0a7.82,7.82,0,0,1-7.82,7.81H90.24a7.81,7.81,0,1,1,0-15.62h23.82A7.82,7.82,0,0,1,121.88,100.39Zm0,30.47a7.82,7.82,0,0,1-7.82,7.81H90.24a7.81,7.81,0,1,1,0-15.62h23.82A7.81,7.81,0,0,1,121.88,130.86Zm0,30.08a7.82,7.82,0,0,1-7.82,7.81H90.24a7.82,7.82,0,1,1,0-15.63h23.82A7.82,7.82,0,0,1,121.88,160.94ZM71.09,130.86a7.81,7.81,0,0,1-7.81,7.81H39.45a7.81,7.81,0,0,1,0-15.62H63.28A7.8,7.8,0,0,1,71.09,130.86Zm121.1,6.64a7.81,7.81,0,0,0,7.81-7.81V110.16a7.82,7.82,0,0,0-7.81-7.82H153.13V7.81A7.82,7.82,0,0,0,145.31,0H7.81A7.81,7.81,0,0,0,0,7.81V168.75A31.29,31.29,0,0,0,31.25,200H168.93A31.24,31.24,0,0,0,200,168.75a7.81,7.81,0,1,0-15.62,0,15.62,15.62,0,0,1-15.63,15.62h0a15.63,15.63,0,0,1-15.62-15.62V118h31.25v11.72A7.81,7.81,0,0,0,192.19,137.5ZM31.25,184.37a15.64,15.64,0,0,1-15.63-15.62V15.62H137.5V168.75a31,31,0,0,0,4.2,15.62Z"/></g></g></svg>