<svg xmlns="http://www.w3.org/2000/svg" viewBox="0 0 200 163.11"><defs><style>.cls-1{fill:#59abfc;}</style></defs><title>Asset 22</title><g id="Layer_2" data-name="Layer 2"><g id="Layer_12" data-name="Layer 12"><path class="cls-1" d="M185.68,38.82V0H97.53V38.82l-13.86,24c-4.52.27-8.88,1-12.85,1.6-1.14.19-2.26.36-3.34.52V54.35A17.4,17.4,0,0,1,84.86,37V25.25A29.1,29.1,0,0,0,60.39,38.63,26.74,26.74,0,0,0,57.5,35.2c-5.3-5.3-13.17-8.63-22.76-9.63a58.61,58.61,0,0,0-12.66,0l-4.43.6-.59,4.42a58.61,58.61,0,0,0,0,12.66c.88,8.42,3.55,15.51,7.77,20.7A29.65,29.65,0,0,0,6,78.5c-6.85,11.94-7.92,31.3-2.73,49.31a48.93,48.93,0,0,0,47.05,35.3H200V63.61Zm-51-4.29V11.72h13.75V34.53ZM160.2,11.72H174V34.53H160.2Zm-50.95,0H123V34.53H109.25ZM33.78,37.26c4.71.51,11.22,2,15.43,6.22,5.61,5.61,6.53,15.08,6.51,20.78h0c-5.72,0-15.19-.93-20.76-6.5S28.4,42.68,28.42,37a48.37,48.37,0,0,1,5.36.29ZM50.31,151.4a37.37,37.37,0,0,1-35.79-26.83c-4.29-14.88-3.63-31.06,1.64-40.25,6.72-11.74,19-10.79,34.41-8.33a74.26,74.26,0,0,0,11,1.26A74,74,0,0,0,72.67,76c3.32-.53,6.93-1.11,10.54-1.39v76.8Zm138,0H94.93V66.75l11.84-20.5h69.67l11.84,20.5Z"/></g></g></svg>