<svg xmlns="http://www.w3.org/2000/svg" viewBox="0 0 200 200"><defs><style>.cls-1{fill:#59abfc;}</style></defs><title>Asset 20</title><g id="Layer_2" data-name="Layer 2"><g id="Layer_12" data-name="Layer 12"><path class="cls-1" d="M100,0A100,100,0,1,0,200,100,100,100,0,0,0,100,0Zm0,185.71A85.71,85.71,0,1,1,185.71,100,85.71,85.71,0,0,1,100,185.71Z"/><path class="cls-1" d="M138.91,93.61,81.76,65a7.14,7.14,0,0,0-9.58,3.19,7.23,7.23,0,0,0-.75,3.2v57.14a7.14,7.14,0,0,0,7.14,7.15,7.07,7.07,0,0,0,3.19-.76l57.15-28.57a7.14,7.14,0,0,0,0-12.78Z"/></g></g></svg>