<svg xmlns="http://www.w3.org/2000/svg" viewBox="0 0 76.62 56.86"><defs><style>.cls-1{fill:#fff;}</style></defs><title>Asset 8</title><g id="Layer_2" data-name="Layer 2"><g id="Layer_11" data-name="Layer 11"><path class="cls-1" d="M27.78,56.86a7.45,7.45,0,0,1-5.3-2.2L2.63,34.79a9,9,0,0,1,0-12.71L22.48,2.2A7.53,7.53,0,0,1,35.32,7.49v18.1H73.63a3,3,0,1,1,0,6H35.32a6,6,0,0,1-6-6V7.49a1.47,1.47,0,0,0-.94-1.38,1.49,1.49,0,0,0-1.68.32L6.86,26.31a3,3,0,0,0,0,4.25L26.71,50.43a1.49,1.49,0,0,0,1.68.32,1.45,1.45,0,0,0,.94-1.38V42.93a3,3,0,0,1,6,0v6.44a7.46,7.46,0,0,1-4.64,6.91,7.58,7.58,0,0,1-2.9.58Z"/></g></g></svg>