<svg xmlns="http://www.w3.org/2000/svg" viewBox="0 0 28.06 27.67"><defs><style>.cls-1{fill:#a5a5a5;}</style></defs><title>Asset 11</title><g id="Layer_2" data-name="Layer 2"><g id="Layer_11" data-name="Layer 11"><g id="Forma_1" data-name="Forma 1"><path class="cls-1" d="M16.51,13.83,27.54,3a1.7,1.7,0,0,0,0-2.44,1.76,1.76,0,0,0-2.48,0L14,11.39,3,.51A1.77,1.77,0,0,0,.51.51,1.71,1.71,0,0,0,.51,3l11,10.88L.51,24.71a1.73,1.73,0,0,0,0,2.45,1.77,1.77,0,0,0,2.49,0L14,16.28l11,10.88a1.76,1.76,0,0,0,2.48,0,1.71,1.71,0,0,0,0-2.45Z"/></g></g></g></svg>